<?xml version="1.0" encoding="utf-8"?>
<!-- Generator: Adobe Illustrator 21.0.0, SVG Export Plug-In . SVG Version: 6.00 Build 0)  -->
<svg version="1.1" id="Layer_1" xmlns="http://www.w3.org/2000/svg" xmlns:xlink="http://www.w3.org/1999/xlink" x="0px" y="0px"
	 viewBox="0 0 100 100" style="enable-background:new 0 0 100 100;" xml:space="preserve">
<style type="text/css">
	.st0{fill:#557CBE;stroke:#557CBE;stroke-miterlimit:10;}
	.st1{fill:none;stroke:#557CBE;stroke-width:4;stroke-linecap:round;stroke-linejoin:round;stroke-miterlimit:10;}
</style>
<path id="Earth_x5F_Moon" class="st0" d="M42.6,51.6c6,16.2,34.5,21.6,18.3,27.7s-34.2-2.2-40.2-18.4s2.2-34.2,18.4-40.2
	S36.6,35.5,42.6,51.6z"/>
<g id="San_x5F_Tips">
	<line class="st1" x1="49.3" y1="12.8" x2="49.3" y2="2.8"/>
	<line class="st1" x1="49.3" y1="96.3" x2="49.3" y2="86.3"/>
	<line class="st1" x1="13.5" y1="50.5" x2="3.5" y2="50.5"/>
	<line class="st1" x1="97" y1="50.5" x2="87" y2="50.5"/>
	<line class="st1" x1="24.1" y1="75.2" x2="17" y2="82.2"/>
	<line class="st1" x1="83.1" y1="16.1" x2="76.1" y2="23.2"/>
	<line class="st1" x1="75.1" y1="76.2" x2="82.1" y2="83.2"/>
	<line class="st1" x1="16" y1="17.1" x2="23.1" y2="24.2"/>
</g>
<g id="Star">
	<polygon class="st0" points="75.9,22.3 72.3,21.2 69.4,23.6 69.3,19.8 66.1,17.8 69.6,16.6 70.6,12.9 72.9,15.9 76.6,15.7 
		74.5,18.8 	"/>
	<polygon class="st0" points="66.8,40.1 63.3,39.1 60.4,41.4 60.3,37.8 57.2,35.8 60.7,34.6 61.6,31.1 63.8,33.9 67.5,33.7 
		65.4,36.7 	"/>
	<polygon class="st0" points="90.7,40.4 85.7,39 81.6,42.3 81.4,37 77,34.2 81.9,32.4 83.3,27.4 86.5,31.5 91.7,31.2 88.8,35.5 	"/>
</g>
</svg>
