<?xml version="1.0" encoding="utf-8"?>
<!-- Generator: Adobe Illustrator 21.0.0, SVG Export Plug-In . SVG Version: 6.00 Build 0)  -->
<svg version="1.1" id="Layer_1" xmlns="http://www.w3.org/2000/svg" xmlns:xlink="http://www.w3.org/1999/xlink" x="0px" y="0px"
	 viewBox="0 0 100 100" style="enable-background:new 0 0 100 100;" xml:space="preserve">
<style type="text/css">
	.st0{fill:none;stroke:#557CBE;stroke-width:2;stroke-linecap:round;stroke-linejoin:round;stroke-miterlimit:10;}
</style>
<g>
	<path class="st0" d="M67,84.2l-10,3.2c-0.7,0.2-1.5-0.2-1.8-0.9L55,85.5c-0.2-0.7,0.2-1.5,0.9-1.8l10-3.2c0.7-0.2,1.5,0.2,1.8,0.9
		l0.3,0.9C68.2,83.1,67.8,83.9,67,84.2z"/>
	<path class="st0" d="M80.5,84.5L45.1,95.8c-1.1,0.4-2.3-0.3-2.7-1.4l-24.3-76c-0.4-1.1,0.3-2.3,1.4-2.7L54.9,4.4
		c1.1-0.4,2.3,0.3,2.7,1.4l24.3,76C82.3,82.9,81.7,84.2,80.5,84.5z"/>
	
		<rect x="32.8" y="17.8" transform="matrix(0.9526 -0.3043 0.3043 0.9526 -12.47 17.3925)" class="st0" width="33.6" height="61.8"/>
	<line class="st0" x1="34.6" y1="15.2" x2="42.1" y2="12.8"/>
</g>
<polyline class="st0" points="9.2,37.4 17.5,41.2 14.3,48.1 20.5,50.9 17.4,57.9 24.4,61.1 21.4,67.7 28.5,71 25.4,78 30.6,80.3 "/>
<polyline class="st0" points="90.1,64.6 84.8,62.3 87.8,55.4 80.6,52.2 83.5,45.5 76.3,42.4 79.4,35.4 73,32.7 76.1,25.7 67.7,22.1 
	73.9,8.6 "/>
</svg>
