<?xml version="1.0" encoding="utf-8"?>
<!-- Generator: Adobe Illustrator 21.0.0, SVG Export Plug-In . SVG Version: 6.00 Build 0)  -->
<svg version="1.1" id="Layer_1" xmlns="http://www.w3.org/2000/svg" xmlns:xlink="http://www.w3.org/1999/xlink" x="0px" y="0px"
	 viewBox="0 0 500 500" style="enable-background:new 0 0 500 500;" xml:space="preserve">
<style type="text/css">
	.st0{display:none;fill:#000317;}
	.st1{fill:#000317;}
	.st2{fill:#FFFFFF;}
	.st3{fill:#F70000;stroke:#FFFFFF;stroke-width:4;stroke-miterlimit:10;}
	.st4{fill:#4387FF;stroke:#FFFFFF;stroke-width:2;stroke-miterlimit:10;}
	.st5{fill:#FFFFFF;stroke:#FFFFFF;stroke-width:7;stroke-miterlimit:10;}
	.st6{fill:#F70000;stroke:#FFFFFF;stroke-width:2;stroke-miterlimit:10;}
</style>
<rect class="st0" width="502" height="502"/>
<g>
	<circle class="st1" cx="249.5" cy="249.5" r="244.5"/>
	<path class="st2" d="M279.8,317.9c0,0-23.2,19.2-26.9,19.2s-29.4-19.2-29.4-19.2s8.6,2.2,14.3,0.3s15.1,5.7,15.1,5.7
		s9.4-7.6,15.1-5.7S279.8,317.9,279.8,317.9z"/>
	<g>
		<path class="st2" d="M93.2,142.7c0,0-10,3.3-13.3-3.3c-3.3-6.6,0-10,6.6-10s18.3,5,18.3,11.6c0,6.6-3.3,19.9-16.6,19.9
			S55,147.7,55,134.4s10-36.6,29.9-36.6s29.9,13.3,33.2,13.3c3.3,0,23.3-19.9,46.5-10s39.9,16.6,39.9,49.9s-29.9,39.9-29.9,39.9
			s19.9,13.3,23.3,36.6s23.3,26.6,29.9,19.9c6.6-6.6,13.3-16.6,6.6-19.9c-6.6-3.3-3.3,13.3-13.3,13.3c-10,0-16.6-26.6-6.6-29.9
			s33.2,0,33.2,23.3s-16.6,29.9-29.9,26.6s-29.9-13.3-33.2-29.9s3.3-29.9-36.6-29.9c0,0-5-5-1.7-11.6c3.3-6.6,38.2-1.7,44.9-21.6
			c6.6-19.9,3.3-36.6-6.6-43.2s-10-10-23.3-10c-13.3,0-28.2,21.6-28.2,21.6s5,38.2,1.7,54.8s-26.6,46.5-26.6,46.5
			s-3.3,13.3,6.6,16.6s16.6,10,13.3,16.6c-3.3,6.6-33.2,3.3-36.6-19.9s8.3-15,21.6-38.2s13.3-66.5,6.6-83.1s-31.6-24.9-34.9-21.6
			c-3.3,3.3-19.9,13.3-13.3,26.6s10,16.6,16.6,16.6c6.6,0,10-3.3,10-6.6S93.2,142.7,93.2,142.7z"/>
		<path class="st2" d="M236,135.7c-5.2,1.1,36.1,7.8,44.4,48.2s1.9,64.7-6.9,58.8c-8.9-5.8-3-14.7-3-14.7s-2.3-11-8.9-5.8
			c-6.6,5.2-5.7,28,6.8,33c12.5,5.1,30.1-2.4,30.7-17.9s-7.1-71.2-16.7-80.7c-9.6-9.5,37.6,15.2,37.6,15.2l9.8-63.3
			c0,0,44.2,120.9,75,103.1s4.2-35.3,0.5-34.5c-3.7,0.8-3.7,0.8-6.6,5.2c-2.9,4.4,6,10.2,8.9,5.8c2.9-4.4,13.3,8.7,3,14.7
			s-27.1,17.1-68.2-89.2c-12-39.6-4.7-41.1-7.6-36.7c-2.9,4.4-13.6,44.9-30.5,56.1S239.7,135,236,135.7z"/>
	</g>
	<path class="st3" d="M341.1,247c0,0-9.6-17.6-18.8-14.8s-14.3,9.2-12.8,18c1.5,8.9,27.5,48.9,27.6,55.3s8.1-10.8,24.8-28.5
		c2.6-2.8,30.2-29.2,14.7-43.4C372.4,229.8,352.5,222.6,341.1,247z"/>
	<g>
		<path class="st4" d="M375.7,285.5L330,223.7c0,0-19.5-2.5-12.4,9c7.1,11.5,47,68,47,68s1.3,6.2,9.1-1.8
			C381.5,290.8,375.7,285.5,375.7,285.5z"/>
		<path class="st4" d="M364.6,230.9l-18.1,74.7c0,0-17,9.9-14.9-3.4s16.9-80.9,16.9-80.9s-1.3-6.2,9.1-1.8S364.6,230.9,364.6,230.9z
			"/>
	</g>
	<path class="st5" d="M245.2,398.5l-13.4-11.4c-0.1-0.1-0.2-0.3-0.3-0.5c-0.2-0.5-2-1.7-14,0.2c-15,2.4-137-27.4-151-56
		c-14-28.6,20-22.6,16-15.5c-1.2,2.1-2.3,3.3-3.4,4.1c-1.2,0.8,0,2.6,1.3,1.9c0,0,0.1,0,0.1-0.1c4-2.4,7-7.2,6-10.7
		c-1-3.6-10.9-11.8-19.8-7.2c-0.1,0.1-0.2,0.1-0.3,0.2c-1.6,1.5-18,17.4-0.9,34.5c17.7,17.6,35.5,30.6,41.7,39
		c0.2,0.2,0.4,0.4,0.8,0.4c4.2,0.6,35.2,5,44.5,9.5c10,4.8,35,27.4,45,28.6s35-9.5,42-8.3c3.9,0.7,5.6,1.3,6.4,1.8
		c0.4,0.2,0.8,0.2,1.2,0c0.8-0.5,2.5-1.1,6.4-1.8c7-1.2,32,9.5,42,8.3s35-23.8,45-28.6c9.3-4.4,40.3-8.9,44.5-9.5
		c0.3,0,0.6-0.2,0.8-0.4c6.3-8.4,24-21.3,41.7-39c17.1-17,0.8-32.9-0.9-34.5c-0.1-0.1-0.2-0.1-0.3-0.2c-9-4.6-18.9,3.7-19.8,7.2
		c-1,3.6,2,8.3,6,10.7c0,0,0.1,0,0.1,0.1c1.2,0.7,2.4-1.1,1.3-1.9c-1.1-0.8-2.2-2-3.4-4.1c-4-7.2,30-13.1,16,15.5
		c-14,28.6-136,58.4-151,56c-15-2.4-14,0-14,0l-13.7,11.6c-0.2,0.2-0.5,0.3-0.7,0.3h-1.2C245.7,398.8,245.4,398.7,245.2,398.5z"/>
	<path class="st6" d="M170.4,265c0,0,7.8-14.2,15.2-12s11.6,7.4,10.4,14.6c-1.2,7.1-22.2,39.5-22.3,44.6s-6.5-8.7-20-23
		c-2.1-2.2-24.3-23.5-11.8-35C145.1,251.2,161.2,245.4,170.4,265z"/>
</g>
</svg>
