<?xml version="1.0" encoding="utf-8"?>
<!-- Generator: Adobe Illustrator 21.0.0, SVG Export Plug-In . SVG Version: 6.00 Build 0)  -->
<svg version="1.1" id="Layer_1" xmlns="http://www.w3.org/2000/svg" xmlns:xlink="http://www.w3.org/1999/xlink" x="0px" y="0px"
	 viewBox="0 0 876.4 876.4" style="enable-background:new 0 0 876.4 876.4;" xml:space="preserve">
<style type="text/css">
	.st0{display:none;stroke:#FFFFFF;stroke-miterlimit:10;}
	.st1{fill:#4085FF;stroke:#FFFFFF;stroke-width:5;stroke-miterlimit:10;}
	.st2{fill:#FFFFFF;stroke:#FFFFFF;stroke-width:13;stroke-miterlimit:10;}
	.st3{fill:none;stroke:#FFFFFF;stroke-width:11;stroke-miterlimit:10;}
	.st4{fill:none;stroke:#FFFFFF;stroke-width:13;stroke-linecap:round;stroke-linejoin:round;stroke-miterlimit:10;}
	.st5{fill:#FFFFFF;stroke:#FFFFFF;stroke-miterlimit:10;}
</style>
<rect x="3.2" y="3.2" class="st0" width="870" height="870"/>
<circle cx="437.5" cy="437.5" r="417.4"/>
<path class="st1" d="M323.4,514.9c6-28.4-6-104.2-18.1-104.2c-12.1,0-30.2,18.9-30.2,56.8s0,66.3,12.1,66.3
	C299.3,533.9,317.4,543.4,323.4,514.9z"/>
<path class="st2" d="M500.3,561.6c0,0-37.7,31.3-43.9,31.3s-47.9-31.3-47.9-31.3s14,3.6,23.3,0.5c9.2-3.1,24.6,9.2,24.6,9.2
	s15.4-12.3,24.6-9.2S500.3,561.6,500.3,561.6z"/>
<g>
	<path class="st2" d="M183.7,257.2c0,0-18.9,6.3-25.2-6.3c-6.3-12.6,0-18.9,12.6-18.9c12.6,0,34.6,9.4,34.6,22s-6.3,37.7-31.5,37.7
		s-62.9-25.2-62.9-50.3s18.9-69.2,56.6-69.2s56.6,25.2,62.9,25.2c6.3,0,44-37.7,88.1-18.9s75.5,31.5,75.5,94.4s-56.6,75.5-56.6,75.5
		s37.7,25.2,44,69.2s44,50.3,56.6,37.7c12.6-12.6,25.2-31.5,12.6-37.7c-12.6-6.3-6.3,25.2-25.2,25.2s-31.5-50.3-12.6-56.6
		s62.9,0,62.9,44s-31.5,56.6-56.6,50.3c-25.2-6.3-56.6-25.2-62.9-56.6s6.3-56.6-69.2-56.6c0,0-9.4-9.4-3.1-22
		c6.3-12.6,72.4-3.1,84.9-40.9c12.6-37.7,6.3-69.2-12.6-81.8s-18.9-18.9-44-18.9c-25.2,0-53.5,40.9-53.5,40.9s9.4,72.4,3.1,103.8
		c-6.3,31.5-50.3,88.1-50.3,88.1s-6.3,25.2,12.6,31.5s31.5,18.9,25.2,31.5c-6.3,12.6-62.9,6.3-69.2-37.7
		c-6.3-44,15.7-28.3,40.9-72.4S246.6,263.5,234,232c-12.6-31.5-59.8-47.2-66.1-40.9c-6.3,6.3-37.7,25.2-25.2,50.3
		s18.9,31.5,31.5,31.5s18.9-6.3,18.9-12.6C193.1,254,183.7,257.2,183.7,257.2z"/>
	<path class="st2" d="M444.1,237.7c-9.8,2,68.3,14.8,84.1,91.2c15.8,76.4,3.7,122.4-13.1,111.4c-16.8-11-5.8-27.8-5.8-27.8
		s-4.3-20.8-16.8-11c-12.5,9.8-10.8,52.9,13,62.5c23.7,9.6,57-4.6,58.2-33.8c1.2-29.2-13.5-134.8-31.7-152.8
		c-18.2-18,71.1,28.7,71.1,28.7l18.6-119.8c0,0,83.7,228.9,141.9,195.1c58.2-33.8,7.9-66.8,0.9-65.4c-6.9,1.4-6.9,1.4-12.5,9.8
		s11.3,19.4,16.8,11s25.2,16.5,5.8,27.8c-19.4,11.3-51.2,32.4-129.2-168.8c-22.8-75-8.9-77.8-14.4-69.5s-25.8,85-57.7,106.1
		S451,236.3,444.1,237.7z"/>
</g>
<g>
	<path class="st1" d="M692.6,502.1l-78.4-106c0,0-33.4-4.3-21.3,15.4s80.6,116.7,80.6,116.7s2.2,10.6,15.6-3.2
		C702.6,511.2,692.6,502.1,692.6,502.1z"/>
	<path class="st1" d="M673.6,408.4l-31.1,128.2c0,0-29.1,17-25.6-5.9c3.5-22.9,28.9-138.8,28.9-138.8s-2.2-10.6,15.6-3.2
		S673.6,408.4,673.6,408.4z"/>
</g>
<path class="st3" d="M434.1,732.9c-187.7,0-271-106.2-271-106.2l2.3-28.8c0,0,224.1,153.7,548.8-16.5v26.9
	C714.2,608.4,603.3,732.9,434.1,732.9z"/>
<g>
	<polyline class="st4" points="170.4,601.1 188.7,652.3 210.7,623 221.7,678 251,637.7 265.6,699.9 302.3,652.3 316.9,718.3 
		353.5,659.7 375.5,729.2 408.4,663.3 437.7,732.9 463.4,659.7 496.3,729.2 522,656 554.9,710.9 580.6,637.7 617.2,681.6 639.2,623 
		664.8,652.3 675.8,601.1 701.4,623 712.4,586.4 	"/>
</g>
<path class="st5" d="M715.9,574.9c0,0,40.4-40.4,70.8-25.3c30.3,15.2,30.3,60.7,10.1,65.7c-20.2,5.1-65.7,5.1-60.7-20.2
	c5.1-25.3,30.3-30.3,40.4-25.3c10.1,5.1,25.3,20.2,15.2,25.3c-10.1,5.1-20.2,0-20.2-5.1s-5.1-15.2-10.1-10.1
	c-5.1,5.1-25.3,20.2-5.1,25.3s40.4,10.1,45.5,0c5.1-10.1,5.1-50.5-30.3-45.5c-35.4,5.1-55.6,25.3-55.6,30.3s-5.1-5.1-5.1-5.1
	L715.9,574.9"/>
<path class="st5" d="M164.3,592.2c0,0-43.4-43.4-75.9-27.1s-32.5,65.1-10.8,70.5c21.7,5.4,70.5,5.4,65.1-21.7
	c-5.4-27.1-32.5-32.5-43.4-27.1S72.1,608.5,83,613.9c10.8,5.4,21.7,0,21.7-5.4s5.4-16.3,10.8-10.8c5.4,5.4,27.1,21.7,5.4,27.1
	s-43.4,10.8-48.8,0c-5.4-10.8-5.4-54.2,32.5-48.8c38,5.4,59.7,27.1,59.7,32.5s5.4-5.4,5.4-5.4L164.3,592.2"/>
</svg>
