<?xml version="1.0" encoding="utf-8"?>
<!-- Generator: Adobe Illustrator 21.0.0, SVG Export Plug-In . SVG Version: 6.00 Build 0)  -->
<svg version="1.1" id="Layer_1" xmlns="http://www.w3.org/2000/svg" xmlns:xlink="http://www.w3.org/1999/xlink" x="0px" y="0px"
	 viewBox="0 0 288 288" style="enable-background:new 0 0 288 288;" xml:space="preserve">
<style type="text/css">
	.st0{stroke:#FFFFFF;stroke-width:3;stroke-miterlimit:10;}
	.st1{fill:#4085FF;stroke:#FFFFFF;stroke-width:1.5;stroke-miterlimit:10;}
	.st2{fill:#FFFFFF;}
	.st3{fill:#FFFFFF;stroke:#FFFFFF;stroke-miterlimit:10;}
	.st4{fill:none;stroke:#000000;stroke-width:1.75;stroke-linecap:round;stroke-linejoin:round;stroke-miterlimit:10;}
</style>
<g>
	<circle class="st0" cx="143.5" cy="143.5" r="139.5"/>
	<path class="st1" d="M102.3,169.1c2-9.4-2-34.6-6-34.6c-4,0-10.1,6.3-10.1,18.9c0,12.6,0,22,4,22S100.3,178.5,102.3,169.1z"/>
	<path class="st2" d="M160.8,182.5c0,0-13.2,11-15.4,11c-2.2,0-16.8-11-16.8-11s4.9,1.3,8.1,0.2c3.2-1.1,8.6,3.2,8.6,3.2
		s5.4-4.3,8.6-3.2C157.3,183.8,160.8,182.5,160.8,182.5z"/>
	<g>
		<path class="st3" d="M54.3,82.6c0,0-5.7,1.9-7.6-1.9s0-5.7,3.8-5.7c3.8,0,10.4,2.8,10.4,6.6S59.1,93,51.5,93s-19-7.6-19-15.2
			c0-7.6,5.7-20.9,17.1-20.9s17.1,7.6,19,7.6s13.3-11.4,26.5-5.7s22.8,9.5,22.8,28.4s-17.1,22.8-17.1,22.8s11.4,7.6,13.3,20.9
			s13.3,15.2,17.1,11.4c3.8-3.8,7.6-9.5,3.8-11.4c-3.8-1.9-1.9,7.6-7.6,7.6s-9.5-15.2-3.8-17.1s19,0,19,13.3s-9.5,17.1-17.1,15.2
			s-17.1-7.6-19-17.1c-1.9-9.5,1.9-17.1-20.9-17.1c0,0-2.8-2.8-0.9-6.6c1.9-3.8,21.8-0.9,25.6-12.3c3.8-11.4,1.9-20.9-3.8-24.7
			c-5.7-3.8-5.7-5.7-13.3-5.7c-7.6,0-16.1,12.3-16.1,12.3s2.8,21.8,0.9,31.3s-15.2,26.5-15.2,26.5s-1.9,7.6,3.8,9.5
			c5.7,1.9,9.5,5.7,7.6,9.5c-1.9,3.8-19,1.9-20.9-11.4c-1.9-13.3,4.7-8.5,12.3-21.8s7.6-37.9,3.8-47.4c-3.8-9.5-18-14.2-19.9-12.3
			c-1.9,1.9-11.4,7.6-7.6,15.2c3.8,7.6,5.7,9.5,9.5,9.5c3.8,0,5.7-1.9,5.7-3.8S54.3,82.6,54.3,82.6z"/>
		<path class="st3" d="M135.8,78.6c-3,0.6,20.6,4.5,25.4,27.5s1.1,36.9-4,33.6c-5.1-3.3-1.7-8.4-1.7-8.4s-1.3-6.3-5.1-3.3
			s-3.2,16,3.9,18.8s17.2-1.4,17.5-10.2c0.4-8.8-4.1-40.6-9.6-46.1c-5.5-5.4,21.4,8.7,21.4,8.7l5.6-36.1c0,0,25.2,69,42.8,58.8
			s2.4-20.1,0.3-19.7c-2.1,0.4-2.1,0.4-3.8,3c-1.7,2.5,3.4,5.8,5.1,3.3c1.7-2.5,7.6,5,1.7,8.4c-5.8,3.4-15.4,9.8-38.9-50.9
			c-6.9-22.6-2.7-23.5-4.3-20.9c-1.7,2.5-7.8,25.6-17.4,32C165.2,83.4,137.9,78.2,135.8,78.6z"/>
	</g>
	<g>
		<path class="st1" d="M214.4,162.3l-26.1-35.3c0,0-11.1-1.4-7.1,5.1c4,6.6,26.8,38.8,26.8,38.8s0.7,3.5,5.2-1.1
			S214.4,162.3,214.4,162.3z"/>
		<path class="st1" d="M208,131.1l-10.3,42.6c0,0-9.7,5.6-8.5-2c1.2-7.6,9.6-46.2,9.6-46.2s-0.7-3.5,5.2-1.1
			C209.9,127.1,208,131.1,208,131.1z"/>
	</g>
	<path class="st2" d="M142,240.4c-75.6-0.8-108.6-44-108.6-44l1-11.6c0,0,89.5,62.9,221-4.2l-0.1,10.8
		C255.3,191.5,210.1,241.1,142,240.4z"/>
	<g>
		<polyline class="st4" points="36.4,186.1 43.6,206.8 52.5,195.2 56.7,217.3 68.7,201.2 74.3,226.4 89.3,207.4 94.9,234 
			109.9,210.5 118.4,238.6 131.9,212.3 143.4,240.4 154.1,211 167,239.2 177.7,209.8 190.7,232.1 201.3,202.7 215.9,220.6 
			225,197.1 235.2,209 239.8,188.4 250,197.4 254.6,182.7 		"/>
	</g>
	<path class="st2" d="M251.8,181.1c0,0,7.3-7.8,13.1-5.2c5.8,2.6,6.1,11.2,2.3,12.2c-3.8,1.1-12.3,1.4-11.5-3.4
		c0.8-4.8,5.5-5.9,7.4-5c1.9,0.9,4.9,3.6,3,4.6c-1.9,1-3.8,0.1-3.8-0.8s-1-2.8-2-1.8s-4.6,3.9-0.8,4.8c3.8,0.8,7.6,1.6,8.5-0.3
		c0.9-1.9,0.6-9.5-6-8.3s-10.3,5.1-10.2,6c0,0.9-1-0.9-1-0.9L251.8,181.1"/>
	<path class="st2" d="M43.2,189.1c0,0-7.1-12.3-15.3-10.6s-11.2,12.6-6.7,15.1c4.5,2.5,15.4,5.5,15.8-0.9s-5.3-9.2-8-8.7
		c-2.7,0.6-7.4,3.2-5.3,5.1s4.8,1.3,5.2,0.1c0.3-1.2,2.2-3.3,3.1-1.8c0.9,1.5,4.7,6.5-0.4,6.4c-5.2-0.1-10.3-0.2-10.9-2.9
		c-0.6-2.7,2.1-12.4,10.2-8.9s11.7,9.7,11.4,10.9c-0.3,1.2,1.5-0.9,1.5-0.9L43.2,189.1"/>
</g>
</svg>
